<?xml version="1.0" standalone="no"?>
<!DOCTYPE svg PUBLIC "-//W3C//DTD SVG 20010904//EN"
 "http://www.w3.org/TR/2001/REC-SVG-20010904/DTD/svg10.dtd">
<svg version="1.0" xmlns="http://www.w3.org/2000/svg"
 width="566.000000pt" height="512.000000pt" viewBox="0 0 566.000000 512.000000"
 preserveAspectRatio="xMidYMid meet">

<g transform="translate(0.000000,512.000000) scale(0.100000,-0.100000)"
fill="#000000" stroke="none">
<path d="M2605 5100 c-595 -77 -1083 -316 -1500 -734 -386 -387 -619 -831
-711 -1353 -34 -193 -43 -318 -39 -513 16 -687 290 -1308 787 -1785 464 -446
1051 -691 1708 -712 477 -15 1007 128 1405 380 522 331 903 818 1090 1392 120
370 153 813 89 1195 -57 339 -175 657 -346 934 -193 313 -547 665 -845 841
-143 84 -377 193 -513 238 -365 122 -766 163 -1125 117z m600 -890 c137 -23
298 -75 434 -141 l105 -50 -417 -417 -417 -417 -417 417 -417 417 105 50 c322
154 667 202 1024 141z m-1337 -2067 l-417 -417 -50 105 c-116 241 -163 455
-163 729 -1 274 47 488 163 729 l50 105 417 -417 417 -417 -417 -417z m2552
1144 c222 -464 221 -990 -1 -1457 l-50 -104 -417 417 -417 417 415 415 c228
228 416 415 418 415 2 0 25 -46 52 -103z m-1091 -1771 l414 -414 -74 -37
c-240 -121 -484 -179 -759 -179 -275 0 -519 58 -759 179 l-74 37 414 414 c228
228 416 414 419 414 3 0 191 -186 419 -414z"/>
</g>
</svg>
